<svg xmlns="http://www.w3.org/2000/svg" version="1.1" xmlns:xlink="http://www.w3.org/1999/xlink" xmlns:svgjs="http://svgjs.dev/svgjs" width="1000" height="623" viewBox="0 0 1000 623"><g transform="matrix(1,0,0,1,-0.6060606060606233,0.2522267206477409)"><svg viewBox="0 0 396 247" data-background-color="#0c1d36" preserveAspectRatio="xMidYMid meet" height="623" width="1000" xmlns="http://www.w3.org/2000/svg" xmlns:xlink="http://www.w3.org/1999/xlink"><defs></defs><g id="tight-bounds" transform="matrix(1,0,0,1,0.2400000000000091,-0.09999999999999432)"><svg viewBox="0 0 395.52 247.2" height="247.2" width="395.52"><g><svg></svg></g><g><svg viewBox="0 0 395.52 247.2" height="247.2" width="395.52"><g transform="matrix(1,0,0,1,75.54432,72.5089380881031)"><svg viewBox="0 0 244.43135999999998 102.18212382379382" height="102.18212382379382" width="244.43135999999998"><g><svg viewBox="0 0 244.43135999999998 102.18212382379382" height="102.18212382379382" width="244.43135999999998"><g><svg viewBox="0 0 244.43135999999998 102.18212382379382" height="102.18212382379382" width="244.43135999999998"><g><svg viewBox="0 0 244.43135999999998 102.18212382379382" height="102.18212382379382" width="244.43135999999998"><g><svg viewBox="0 0 244.43135999999998 102.18212382379382" height="102.18212382379382" width="244.43135999999998"><g><svg viewBox="0 0 244.43135999999998 102.18212382379382" height="102.18212382379382" width="244.43135999999998"><g transform="matrix(1,0,0,1,0,0)"><svg width="244.43135999999998" viewBox="1.7000000476837158 -47 166.8300018310547 69.75" height="102.18212382379382" data-palette-color="#f9cc0b"><path d="M16.35 0.4Q9.7 0.4 5.7-2.13 1.7-4.65 1.7-9.85L1.7-9.85Q1.7-12.6 2.65-14.05 3.6-15.5 5.45-15.5L5.45-15.5Q6.8-15.5 7.65-14.8 8.5-14.1 8.5-13L8.5-13Q8.5-12 8.35-11.25L8.35-11.25Q8.35-11.05 8.28-10.55 8.2-10.05 8.2-9.5L8.2-9.5Q8.2-7.25 10.48-6.15 12.75-5.05 16.85-5.05L16.85-5.05Q21.1-5.05 23.5-6.58 25.9-8.1 25.9-10.85L25.9-10.85Q25.9-12.55 24.8-13.78 23.7-15 22.05-15.83 20.4-16.65 17.4-17.85L17.4-17.85Q13.55-19.35 11.13-20.7 8.7-22.05 6.98-24.38 5.25-26.7 5.25-30.15L5.25-30.15Q5.25-33.75 7.18-36.55 9.1-39.35 12.73-40.9 16.35-42.45 21.25-42.45L21.25-42.45Q24.9-42.45 27.95-41.38 31-40.3 32.83-38.1 34.65-35.9 34.65-32.7L34.65-32.7Q34.65-29.55 33.7-27.95 32.75-26.35 30.9-26.35L30.9-26.35Q29.6-26.35 28.73-27.15 27.85-27.95 27.85-29.05L27.85-29.05Q27.85-30 28-30.8L28-30.8Q28.15-32.3 28.15-32.7L28.15-32.7Q28.15-34.8 26.1-35.9 24.05-37 21-37L21-37Q16.7-37 14.43-35.43 12.15-33.85 12.15-31L12.15-31Q12.15-29.1 13.33-27.75 14.5-26.4 16.25-25.5 18-24.6 21.15-23.35L21.15-23.35Q24.95-21.8 27.25-20.55 29.55-19.3 31.18-17.15 32.8-15 32.8-11.85L32.8-11.85Q32.8-5.95 28.33-2.78 23.85 0.4 16.35 0.4L16.35 0.4ZM46.6 0.25Q41.7 0.25 38.97-2.53 36.25-5.3 36.25-9.85L36.25-9.85Q36.25-13.9 37.85-16.95 39.45-20 42-21.65 44.55-23.3 47.35-23.3L47.35-23.3Q50.1-23.3 51.62-21.68 53.15-20.05 53.15-17.5L53.15-17.5Q53.15-15.4 52.22-13.95 51.3-12.5 49.8-12.5L49.8-12.5Q48.85-12.5 48.27-12.95 47.7-13.4 47.7-14.2L47.7-14.2Q47.7-14.55 47.8-15 47.9-15.45 47.95-15.65L47.95-15.65Q48.2-16.4 48.2-17.05L48.2-17.05Q48.2-17.7 47.87-18.05 47.55-18.4 46.95-18.4L46.95-18.4Q45.8-18.4 44.8-17.38 43.8-16.35 43.2-14.6 42.6-12.85 42.6-10.75L42.6-10.75Q42.6-4.95 47.65-4.95L47.65-4.95Q49.7-4.95 52.07-6.33 54.45-7.7 56.75-10.45L56.75-10.45Q57.35-11.15 58.1-11.15L58.1-11.15Q58.75-11.15 59.12-10.55 59.5-9.95 59.5-8.9L59.5-8.9Q59.5-7 58.55-5.8L58.55-5.8Q56.2-2.9 52.92-1.33 49.65 0.25 46.6 0.25L46.6 0.25ZM62-26.6Q59.9-26.6 58.84-27.58 57.8-28.55 57.8-30.3L57.8-30.3Q57.8-32.05 59.17-33.23 60.55-34.4 62.59-34.4L62.59-34.4Q64.45-34.4 65.59-33.5 66.75-32.6 66.75-30.95L66.75-30.95Q66.75-28.95 65.45-27.78 64.15-26.6 62-26.6L62-26.6ZM61.59 0.25Q58.34 0.25 56.87-2.05 55.4-4.35 55.4-8.15L55.4-8.15Q55.4-10.4 55.97-13.93 56.55-17.45 57.45-20.5L57.45-20.5Q57.9-22.1 58.65-22.7 59.4-23.3 61.05-23.3L61.05-23.3Q63.59-23.3 63.59-21.6L63.59-21.6Q63.59-20.35 62.65-15.8L62.65-15.8Q61.45-10.3 61.45-8.35L61.45-8.35Q61.45-6.85 61.84-6.05 62.25-5.25 63.2-5.25L63.2-5.25Q64.09-5.25 65.45-6.5 66.8-7.75 69.05-10.45L69.05-10.45Q69.65-11.15 70.4-11.15L70.4-11.15Q71.05-11.15 71.42-10.55 71.8-9.95 71.8-8.9L71.8-8.9Q71.8-6.9 70.84-5.8L70.84-5.8Q65.9 0.25 61.59 0.25L61.59 0.25ZM90.04-11.15Q90.69-11.15 91.07-10.55 91.44-9.95 91.44-8.9L91.44-8.9Q91.44-6.9 90.49-5.8L90.49-5.8Q88.64-3.55 85.27-1.65 81.89 0.25 78.04 0.25L78.04 0.25Q72.79 0.25 69.89-2.6 66.99-5.45 66.99-10.4L66.99-10.4Q66.99-13.85 68.44-16.82 69.89-19.8 72.47-21.55 75.04-23.3 78.29-23.3L78.29-23.3Q81.19-23.3 82.94-21.58 84.69-19.85 84.69-16.9L84.69-16.9Q84.69-13.45 82.22-10.98 79.74-8.5 73.84-7.05L73.84-7.05Q75.09-4.75 78.59-4.75L78.59-4.75Q80.84-4.75 83.72-6.33 86.59-7.9 88.69-10.45L88.69-10.45Q89.29-11.15 90.04-11.15L90.04-11.15ZM77.44-18.4Q75.59-18.4 74.32-16.25 73.04-14.1 73.04-11.05L73.04-11.05 73.04-10.95Q75.99-11.65 77.69-13.05 79.39-14.45 79.39-16.3L79.39-16.3Q79.39-17.25 78.87-17.82 78.34-18.4 77.44-18.4L77.44-18.4ZM93.94-26.6Q91.84-26.6 90.79-27.58 89.74-28.55 89.74-30.3L89.74-30.3Q89.74-32.05 91.12-33.23 92.49-34.4 94.54-34.4L94.54-34.4Q96.39-34.4 97.54-33.5 98.69-32.6 98.69-30.95L98.69-30.95Q98.69-28.95 97.39-27.78 96.09-26.6 93.94-26.6L93.94-26.6ZM93.54 0.25Q90.29 0.25 88.82-2.05 87.34-4.35 87.34-8.15L87.34-8.15Q87.34-10.4 87.92-13.93 88.49-17.45 89.39-20.5L89.39-20.5Q89.84-22.1 90.59-22.7 91.34-23.3 92.99-23.3L92.99-23.3Q95.54-23.3 95.54-21.6L95.54-21.6Q95.54-20.35 94.59-15.8L94.59-15.8Q93.39-10.3 93.39-8.35L93.39-8.35Q93.39-6.85 93.79-6.05 94.19-5.25 95.14-5.25L95.14-5.25Q96.04-5.25 97.39-6.5 98.74-7.75 100.99-10.45L100.99-10.45Q101.59-11.15 102.34-11.15L102.34-11.15Q102.99-11.15 103.37-10.55 103.74-9.95 103.74-8.9L103.74-8.9Q103.74-6.9 102.79-5.8L102.79-5.8Q97.84 0.25 93.54 0.25L93.54 0.25ZM103.24 0.25Q101.34 0.25 100.56-1.75 99.79-3.75 99.79-8.15L99.79-8.15Q99.79-14.65 101.64-20.5L101.64-20.5Q102.09-21.95 103.11-22.63 104.14-23.3 105.99-23.3L105.99-23.3Q106.99-23.3 107.39-23.05 107.79-22.8 107.79-22.1L107.79-22.1Q107.79-21.3 107.04-18.5L107.04-18.5Q106.54-16.5 106.24-15 105.94-13.5 105.74-11.3L105.74-11.3Q107.39-15.6 109.44-18.3 111.49-21 113.46-22.15 115.44-23.3 117.09-23.3L117.09-23.3Q120.34-23.3 120.34-20.05L120.34-20.05Q120.34-18.1 119.24-13L119.24-13Q118.29-8.65 118.29-7.25L118.29-7.25Q118.29-5.25 119.74-5.25L119.74-5.25Q120.74-5.25 122.11-6.48 123.49-7.7 125.79-10.45L125.79-10.45Q126.39-11.15 127.14-11.15L127.14-11.15Q127.79-11.15 128.16-10.55 128.54-9.95 128.54-8.9L128.54-8.9Q128.54-6.9 127.59-5.8L127.59-5.8Q125.44-3.15 122.96-1.45 120.49 0.25 117.34 0.25L117.34 0.25Q114.79 0.25 113.49-1.23 112.19-2.7 112.19-5.5L112.19-5.5Q112.19-6.9 112.89-10.5L112.89-10.5Q113.54-13.65 113.54-14.85L113.54-14.85Q113.54-15.65 112.99-15.65L112.99-15.65Q112.34-15.65 111.16-13.98 109.99-12.3 108.76-9.55 107.54-6.8 106.79-3.75L106.79-3.75Q106.24-1.4 105.51-0.58 104.79 0.25 103.24 0.25L103.24 0.25ZM143.94-14Q145.34-14 145.34-11.9L145.34-11.9Q145.34-7.95 139.14-7.95L139.14-7.95Q137.94-7.95 135.69-8.4L135.69-8.4Q136.34-5.3 136.76-1.53 137.19 2.25 137.19 4.7L137.19 4.7Q137.19 10.1 135.44 12.95 133.69 15.8 130.84 15.8L130.84 15.8Q127.24 15.8 125.71 10.7 124.19 5.6 124.19-4.7L124.19-4.7Q124.19-14.3 126.26-24.18 128.34-34.05 131.96-40.53 135.59-47 139.94-47L139.94-47Q142.29-47 143.61-44.9 144.94-42.8 144.94-39.25L144.94-39.25Q144.94-27.5 130.89-13.65L130.89-13.65Q130.39-8.75 130.39-5.05L130.39-5.05Q130.39 0.1 130.74 5.53 131.09 10.95 131.89 10.95L131.89 10.95Q133.39 10.95 133.39 5.75L133.39 5.75Q133.39 1.85 132.86-1.8 132.34-5.45 131.44-9.5L131.44-9.5Q131.39-10.15 131.86-11.15 132.34-12.15 133.03-12.9 133.74-13.65 134.28-13.65L134.28-13.65Q135.28-13.65 136.69-13.55L136.69-13.55Q137.14-13.5 137.74-13.5L137.74-13.5Q139.74-13.5 142.19-13.85L142.19-13.85Q142.59-13.9 143.04-13.95 143.49-14 143.94-14L143.94-14ZM138.89-42.05Q137.99-42.05 136.66-39 135.34-35.95 134.03-30.93 132.74-25.9 131.78-20.3L131.78-20.3Q135.78-24.85 137.94-29.78 140.09-34.7 140.14-39L140.14-39Q140.14-42.05 138.89-42.05L138.89-42.05ZM167.13-11.05Q167.78-11.05 168.16-10.43 168.53-9.8 168.53-8.85L168.53-8.85Q168.53-7.7 168.18-7.05 167.83-6.4 167.08-5.9L167.08-5.9 157.48 0.55Q155.58 10.9 152.51 16.82 149.43 22.75 144.68 22.75L144.68 22.75Q142.13 22.75 140.53 21.18 138.93 19.6 138.93 17.05L138.93 17.05Q138.93 14.7 140.01 12.25 141.08 9.8 144.01 6.63 146.93 3.45 152.28-0.65L152.28-0.65 152.43-1.8Q152.78-3.65 153.23-7.1L153.23-7.1Q152.23-3.5 150.43-1.63 148.63 0.25 146.63 0.25L146.63 0.25Q144.38 0.25 142.96-1.83 141.53-3.9 141.53-7L141.53-7Q141.53-10.75 142.03-13.88 142.53-17 143.68-20.5L143.68-20.5Q144.18-22 145.08-22.65 145.98-23.3 147.93-23.3L147.93-23.3Q149.03-23.3 149.46-22.95 149.88-22.6 149.88-21.9L149.88-21.9Q149.88-21.5 149.33-19.2L149.33-19.2Q148.83-17.35 148.53-15.85L148.53-15.85Q148.13-13.8 147.83-11.93 147.53-10.05 147.53-8.85L147.53-8.85Q147.53-6.95 148.58-6.95L148.58-6.95Q149.33-6.95 150.46-8.45 151.58-9.95 152.86-13 154.13-16.05 155.33-20.5L155.33-20.5Q155.73-22 156.56-22.65 157.38-23.3 159.03-23.3L159.03-23.3Q160.18-23.3 160.63-23 161.08-22.7 161.08-22L161.08-22Q161.08-20.75 159.78-13.4L159.78-13.4 158.48-5.35Q162.33-8.25 165.98-10.65L165.98-10.65Q166.63-11.05 167.13-11.05L167.13-11.05ZM145.23 17.9Q146.48 17.9 148.03 15 149.58 12.1 151.13 5.35L151.13 5.35Q147.28 8.6 145.56 11.28 143.83 13.95 143.83 15.95L143.83 15.95Q143.83 16.8 144.16 17.35 144.48 17.9 145.23 17.9L145.23 17.9Z" opacity="1" transform="matrix(1,0,0,1,0,0)" fill="#f9cc0b" class="undefined-text-0" data-fill-palette-color="primary" id="text-0"></path></svg></g></svg></g></svg></g></svg></g></svg></g></svg></g></svg></g><g><path d="M151.089 198.814A122.216 122.216 0 1 0 151.089 48.386L160.304 48.386A113.001 113.001 0 1 1 160.304 198.814L151.089 198.814" fill="#f9cc0b" stroke="transparent" data-fill-palette-color="tertiary"></path></g></svg></g></svg><rect width="395.52" height="247.2" fill="none" stroke="none" visibility="hidden"></rect></g></svg></g></svg>